# xmcd
#
# Track frame offsets:
#	150
#	19806
#	35478
#	54708
#	80566
#	106697
#	131709
#	145601
#	171095
#	185500
#
# Disc length: 2675 seconds
#
# Revision: 0
# Processed by: cddbd v1.5.2PL0 Copyright (c) Steve Scherf et al.
# Submitted via: audiograbber 1.83.01
#
DISCID=820a710a
DTITLE=Adam and Misi - Éjszakai utazások Zeneországban
DYEAR=1900
DGENRE=Electronic
TTITLE0=Zene él tovább
TTITLE1=Egy éjszaka Nápolyban
TTITLE2=Aszfalt út Bernben
TTITLE3=Kréta
TTITLE4=Andalúzia éjszaka
TTITLE5=Montenegro
TTITLE6=Zöld szemû szörny
TTITLE7=Gibraltári búcsú
TTITLE8=Mexikó tequila party
TTITLE9=Zöld szemû szörny (Ordiman remix)
EXTD=Török Ádám and Horváth Misi
EXTT0=Kálmán-Török
EXTT1=Horváth M.-Török
EXTT2=Németh K.-Horváth M.-Török
EXTT3=Kovács E.-Horváth M.-Török
EXTT4=Török
EXTT5=Horváth M.-Török
EXTT6=Horváth M.-Baggio-Török
EXTT7=György-Török
EXTT8=Török
EXTT9=Ordiman remix
PLAYORDER=
